<svg width="19" height="19" viewBox="0 0 19 19" fill="none" xmlns="http://www.w3.org/2000/svg">
<g clip-path="url(#clip0_3710_24)">
<path d="M6.0895 15.5293C6.55658 15.5293 6.79092 15.5293 7.00388 15.6085C7.03396 15.6196 7.06325 15.6317 7.09175 15.6449C7.29838 15.7399 7.46383 15.9046 7.79475 16.2355C8.55633 16.9971 8.93713 17.3779 9.405 17.4135C9.46833 17.4183 9.53167 17.4183 9.595 17.4135C10.0629 17.3779 10.4437 16.9971 11.2053 16.2355C11.5362 15.9046 11.7016 15.7399 11.9083 15.6449C11.9368 15.6317 11.9658 15.6196 11.9953 15.6085C12.2091 15.5293 12.4426 15.5293 12.9105 15.5293H12.9976C14.1906 15.5293 14.7875 15.5293 15.1588 15.1588C15.5301 14.7883 15.5293 14.1906 15.5293 12.9976V12.9105C15.5293 12.4434 15.5293 12.2091 15.6085 11.9961C15.6196 11.966 15.6317 11.9368 15.6449 11.9083C15.7399 11.7016 15.9046 11.5362 16.2355 11.2053C16.9971 10.4437 17.3779 10.0629 17.4135 9.595C17.4183 9.53167 17.4183 9.46833 17.4135 9.405C17.3779 8.93713 16.9971 8.55633 16.2355 7.79475C15.9046 7.46383 15.7399 7.29838 15.6449 7.09175L15.6085 7.00467C15.5293 6.79092 15.5293 6.55738 15.5293 6.0895V6.00242C15.5293 4.80938 15.5293 4.21246 15.1588 3.84117C14.7883 3.46988 14.1906 3.47067 12.9976 3.47067H12.9105C12.4434 3.47067 12.2091 3.47067 11.9961 3.3915L11.9083 3.35508C11.7016 3.26008 11.5362 3.09542 11.2053 2.7645C10.4437 2.00292 10.0629 1.62213 9.595 1.5865C9.53172 1.5827 9.46828 1.5827 9.405 1.5865C8.93713 1.62213 8.55633 2.00292 7.79475 2.7645C7.46383 3.09542 7.29838 3.26088 7.09175 3.35508L7.00467 3.3915C6.79092 3.47067 6.55738 3.47067 6.0895 3.47067H6.00242C4.80938 3.47067 4.21246 3.47067 3.84117 3.84117C3.46988 4.21167 3.47067 4.80938 3.47067 6.00242V6.0895C3.47067 6.55658 3.47067 6.79092 3.3915 7.00388C3.37989 7.03396 3.36775 7.06325 3.35508 7.09175C3.26008 7.29838 3.09542 7.46383 2.7645 7.79475C2.00292 8.55633 1.62213 8.93713 1.5865 9.405C1.5827 9.46828 1.5827 9.53172 1.5865 9.595C1.62213 10.0629 2.00292 10.4437 2.7645 11.2053C3.09542 11.5362 3.26088 11.7016 3.35508 11.9083C3.36828 11.9368 3.38042 11.9658 3.3915 11.9953C3.47067 12.2091 3.47067 12.4426 3.47067 12.9105V12.9976C3.47067 14.1906 3.47067 14.7875 3.84117 15.1588C4.21167 15.5301 4.80938 15.5293 6.00242 15.5293H6.0895Z" stroke="url(#paint0_linear_3710_24)" stroke-width="1.5"/>
<path d="M11.875 7.125L7.125 11.875" stroke="url(#paint1_linear_3710_24)" stroke-width="1.5" stroke-linecap="round" stroke-linejoin="round"/>
<path d="M11.875 11.875H11.8671M7.13292 7.125H7.125" stroke="url(#paint2_linear_3710_24)" stroke-width="2" stroke-linecap="round" stroke-linejoin="round"/>
</g>
<defs>
<linearGradient id="paint0_linear_3710_24" x1="1.58365" y1="9.50036" x2="17.4171" y2="9.50036" gradientUnits="userSpaceOnUse">
<stop stop-color="#6080DF"/>
<stop offset="1" stop-color="#A70190"/>
</linearGradient>
<linearGradient id="paint1_linear_3710_24" x1="7.125" y1="9.5" x2="11.875" y2="9.5" gradientUnits="userSpaceOnUse">
<stop stop-color="#6080DF"/>
<stop offset="1" stop-color="#A70190"/>
</linearGradient>
<linearGradient id="paint2_linear_3710_24" x1="7.125" y1="9.5" x2="11.875" y2="9.5" gradientUnits="userSpaceOnUse">
<stop stop-color="#6080DF"/>
<stop offset="1" stop-color="#A70190"/>
</linearGradient>
<clipPath id="clip0_3710_24">
<rect width="19" height="19" fill="white"/>
</clipPath>
</defs>
</svg>
