<svg width="22" height="22" viewBox="0 0 22 22" fill="none" xmlns="http://www.w3.org/2000/svg">
<path d="M6.41666 8.25001V2.75001C6.41666 2.49029 6.50466 2.27274 6.68066 2.09735C6.85666 1.92196 7.07421 1.83396 7.33332 1.83335C7.59243 1.83274 7.8103 1.92074 7.98691 2.09735C8.16352 2.27396 8.25121 2.49151 8.24999 2.75001V8.25001H9.16666V2.75001C9.16666 2.49029 9.25466 2.27274 9.43066 2.09735C9.60666 1.92196 9.82421 1.83396 10.0833 1.83335C10.3424 1.83274 10.5603 1.92074 10.7369 2.09735C10.9135 2.27396 11.0012 2.49151 11 2.75001V8.25001C11 9.10557 10.7366 9.85418 10.2098 10.4958C9.68304 11.1375 9.02977 11.5653 8.24999 11.7792V19.25C8.24999 19.5097 8.16199 19.7276 7.98599 19.9036C7.80999 20.0796 7.59243 20.1673 7.33332 20.1667C7.07421 20.1661 6.85666 20.0781 6.68066 19.9027C6.50466 19.7273 6.41666 19.5097 6.41666 19.25V11.7792C5.63749 11.5653 4.98452 11.1375 4.45774 10.4958C3.93096 9.85418 3.66727 9.10557 3.66666 8.25001V2.75001C3.66666 2.49029 3.75466 2.27274 3.93066 2.09735C4.10666 1.92196 4.32421 1.83396 4.58332 1.83335C4.84243 1.83274 5.0603 1.92074 5.23691 2.09735C5.41352 2.27396 5.50121 2.49151 5.49999 2.75001V8.25001H6.41666ZM15.5833 12.8333H13.75C13.4903 12.8333 13.2727 12.7453 13.0973 12.5693C12.9219 12.3933 12.8339 12.1758 12.8333 11.9167V6.41668C12.8333 5.34724 13.2269 4.31599 14.014 3.32293C14.8011 2.32987 15.6145 1.83335 16.4542 1.83335C16.7292 1.83335 16.9583 1.94029 17.1417 2.15418C17.325 2.36807 17.4167 2.62015 17.4167 2.91043V19.25C17.4167 19.5097 17.3287 19.7276 17.1527 19.9036C16.9767 20.0796 16.7591 20.1673 16.5 20.1667C16.2409 20.1661 16.0233 20.0781 15.8473 19.9027C15.6713 19.7273 15.5833 19.5097 15.5833 19.25V12.8333Z" fill="black"/>
</svg>
