<svg width="22" height="22" viewBox="0 0 22 22" fill="none" xmlns="http://www.w3.org/2000/svg">
<path d="M15.3036 2.93216H12.2452C11.6926 2.93392 11.7132 3.7576 12.2452 3.75276H15.3036V4.17384H12.2452C11.6956 4.169 11.7159 4.99224 12.2452 4.99444H15.3036V5.42476H12.2452C11.6956 5.42476 11.7159 6.24756 12.2452 6.24536H15.3036V6.65544H12.2452C11.7071 6.6594 11.7159 7.48308 12.2452 7.48572H15.3036V7.89668H12.2452C11.7071 7.89492 11.7049 8.71728 12.2452 8.71728H15.3036V9.12736H12.2452C11.7071 9.12912 11.7049 9.95236 12.2452 9.9484H15.3036V10.3686H12.2452C11.7071 10.3638 11.7049 11.1861 12.2452 11.1892H15.3036V11.5984H12.2452C11.7071 11.598 11.7159 12.4221 12.2452 12.4194H15.3036V20.4094C15.3054 21.6269 17.1547 21.6049 17.16 20.4094V1.7116C17.1547 1.15544 16.698 0.452322 15.9465 0.450122H12.2452C11.6926 0.450562 11.7132 1.27424 12.2452 1.27072L15.3036 1.28084V1.69004H12.2452C11.6934 1.6874 11.7141 2.51064 12.2452 2.51108H15.3036V2.93216ZM12.0349 17.0975C12.0331 15.6763 10.56 14.1478 8.8 15.1378V9.702L7.66172 0.737002C7.63796 0.499842 7.43688 0.443962 7.3018 0.440002C7.16232 0.443962 6.88292 0.499842 6.85256 0.737002L5.72 9.702V15.1378C3.96 14.1478 2.5344 15.686 2.53396 17.0865C2.5344 18.3326 3.4936 19.356 4.7916 19.353C6.09928 19.356 7.04 18.209 7.04 17.0865V11.44H7.48V17.0865C7.48 18.3432 8.45328 19.2733 9.5348 19.3323C9.51676 20.0213 9.7416 21.0043 10.1649 21.3941C10.6612 21.8517 11.2521 21.2665 11.0097 20.79C10.7756 20.3465 10.5459 20.0838 10.7325 19.1154C11.5122 18.7546 12.0331 17.9951 12.0349 17.0975ZM4.84176 18.2156C4.54506 18.2156 4.26051 18.0977 4.05072 17.8879C3.84092 17.6781 3.72306 17.3936 3.72306 17.0969C3.72306 16.8002 3.84092 16.5156 4.05072 16.3058C4.26051 16.096 4.54506 15.9782 4.84176 15.9782C5.4516 15.9817 5.94836 16.482 5.95276 17.0975C5.95173 17.3925 5.83457 17.6752 5.62664 17.8845C5.41871 18.0937 5.13674 18.2127 4.84176 18.2156ZM8.613 17.0975C8.61402 16.8023 8.7312 16.5194 8.93919 16.3099C9.14718 16.1005 9.42926 15.9813 9.72444 15.9782C10.0196 15.9811 10.3018 16.1002 10.5098 16.3097C10.7178 16.5192 10.8348 16.8023 10.8354 17.0975C10.835 17.3927 10.718 17.6757 10.51 17.8851C10.3019 18.0945 10.0196 18.2132 9.72444 18.2156C9.42938 18.2128 9.1473 18.0939 8.93927 17.8846C8.73125 17.6754 8.61403 17.3926 8.613 17.0975Z" fill="black"/>
</svg>
