<svg width="360" height="526" viewBox="0 0 360 526" fill="none" xmlns="http://www.w3.org/2000/svg">
<rect y="36" width="130" height="50" rx="10" fill="white"/>
<rect x="5" y="11" width="50" height="20" rx="10" fill="white"/>
<rect width="60" height="6" rx="3" fill="white"/>
<rect x="125" y="111" width="50" height="20" rx="10" transform="rotate(180 125 111)" fill="white"/>
<rect x="130" y="122" width="60" height="6" rx="3" transform="rotate(180 130 122)" fill="white"/>
<rect x="75" y="11" width="50" height="20" rx="10" fill="white"/>
<rect x="70" width="60" height="6" rx="3" fill="white"/>
<rect x="55" y="111" width="50" height="20" rx="10" transform="rotate(180 55 111)" fill="white"/>
<rect x="60" y="122" width="60" height="6" rx="3" transform="rotate(180 60 122)" fill="white"/>
<path d="M66.9238 68H64.6191V58.8105C64.6191 58.5046 64.6224 58.1986 64.6289 57.8926C64.6354 57.5866 64.6419 57.2871 64.6484 56.9941C64.6615 56.7012 64.6777 56.4212 64.6973 56.1543C64.5605 56.304 64.3913 56.4668 64.1895 56.6426C63.9941 56.8184 63.7858 57.0007 63.5645 57.1895L61.9238 58.498L60.7715 57.043L65.0098 53.7227H66.9238V68Z" fill="black"/>
<rect x="230" y="36" width="130" height="50" rx="10" fill="white"/>
<rect x="235" y="11" width="50" height="20" rx="10" fill="white"/>
<rect x="230" width="60" height="6" rx="3" fill="white"/>
<rect x="355" y="111" width="50" height="20" rx="10" transform="rotate(180 355 111)" fill="white"/>
<rect x="360" y="122" width="60" height="6" rx="3" transform="rotate(180 360 122)" fill="white"/>
<rect x="305" y="11" width="50" height="20" rx="10" fill="white"/>
<rect x="300" width="60" height="6" rx="3" fill="white"/>
<rect x="285" y="111" width="50" height="20" rx="10" transform="rotate(180 285 111)" fill="white"/>
<rect x="290" y="122" width="60" height="6" rx="3" transform="rotate(180 290 122)" fill="white"/>
<path d="M299.844 68H290.176V66.2715L293.877 62.5215C294.593 61.7923 295.182 61.1641 295.645 60.6367C296.107 60.1029 296.449 59.5983 296.67 59.123C296.898 58.6478 297.012 58.1302 297.012 57.5703C297.012 56.8802 296.813 56.3594 296.416 56.0078C296.019 55.6497 295.495 55.4707 294.844 55.4707C294.225 55.4707 293.652 55.5944 293.125 55.8418C292.604 56.0827 292.064 56.4277 291.504 56.877L290.244 55.3633C290.641 55.0247 291.064 54.7155 291.514 54.4355C291.969 54.1556 292.477 53.9342 293.037 53.7715C293.597 53.6022 294.235 53.5176 294.951 53.5176C295.856 53.5176 296.637 53.6803 297.295 54.0059C297.952 54.3249 298.457 54.7708 298.809 55.3438C299.167 55.9167 299.346 56.584 299.346 57.3457C299.346 58.1139 299.193 58.8236 298.887 59.4746C298.581 60.1257 298.145 60.7702 297.578 61.4082C297.012 62.0397 296.338 62.7266 295.557 63.4688L293.086 65.8809V65.9883H299.844V68Z" fill="black"/>
<rect x="55" y="198" width="90" height="50" rx="10" transform="rotate(90 55 198)" fill="white"/>
<rect x="5" y="173" width="50" height="20" rx="10" fill="white"/>
<rect y="162" width="60" height="6" rx="3" fill="white"/>
<rect x="55" y="313" width="50" height="20" rx="10" transform="rotate(180 55 313)" fill="white"/>
<rect x="60" y="324" width="60" height="6" rx="3" transform="rotate(180 60 324)" fill="white"/>
<path d="M34.2969 238.984C34.2969 239.629 34.1667 240.189 33.9062 240.664C33.6458 241.139 33.2878 241.53 32.832 241.836C32.3828 242.135 31.862 242.35 31.2695 242.48V242.549C32.4089 242.692 33.2682 243.05 33.8477 243.623C34.4336 244.196 34.7266 244.954 34.7266 245.898C34.7266 246.725 34.528 247.464 34.1309 248.115C33.7337 248.76 33.125 249.268 32.3047 249.639C31.4844 250.01 30.4297 250.195 29.1406 250.195C28.3659 250.195 27.6465 250.133 26.9824 250.01C26.3249 249.886 25.6999 249.688 25.1074 249.414V247.373C25.7129 247.673 26.3574 247.904 27.041 248.066C27.7246 248.229 28.3724 248.311 28.9844 248.311C30.1758 248.311 31.0254 248.089 31.5332 247.646C32.041 247.197 32.2949 246.579 32.2949 245.791C32.2949 245.283 32.1615 244.867 31.8945 244.541C31.6341 244.215 31.2272 243.971 30.6738 243.809C30.127 243.646 29.4206 243.564 28.5547 243.564H27.2949V241.719H28.5645C29.3913 241.719 30.0553 241.621 30.5566 241.426C31.0579 241.224 31.4193 240.947 31.6406 240.596C31.8685 240.244 31.9824 239.834 31.9824 239.365C31.9824 238.753 31.7839 238.278 31.3867 237.939C30.9896 237.594 30.4004 237.422 29.6191 237.422C29.1374 237.422 28.6979 237.477 28.3008 237.588C27.9102 237.699 27.5488 237.839 27.2168 238.008C26.8848 238.177 26.569 238.359 26.2695 238.555L25.166 236.963C25.7064 236.559 26.3509 236.217 27.0996 235.938C27.8483 235.658 28.7207 235.518 29.7168 235.518C31.1816 235.518 32.3112 235.833 33.1055 236.465C33.8997 237.09 34.2969 237.93 34.2969 238.984Z" fill="black"/>
<rect x="55" y="400" width="90" height="50" rx="10" transform="rotate(90 55 400)" fill="white"/>
<rect x="5" y="375" width="50" height="20" rx="10" fill="white"/>
<rect y="364" width="60" height="6" rx="3" fill="white"/>
<rect x="55" y="515" width="50" height="20" rx="10" transform="rotate(180 55 515)" fill="white"/>
<rect x="60" y="526" width="60" height="6" rx="3" transform="rotate(180 60 526)" fill="white"/>
<path d="M25.1953 445.916C25.1953 445.076 25.2539 444.249 25.3711 443.436C25.4948 442.622 25.7031 441.86 25.9961 441.15C26.2891 440.441 26.6927 439.816 27.207 439.275C27.7279 438.735 28.3822 438.312 29.1699 438.006C29.9577 437.693 30.9049 437.537 32.0117 437.537C32.2982 437.537 32.6204 437.55 32.9785 437.576C33.3366 437.602 33.6328 437.645 33.8672 437.703V439.607C33.6133 439.536 33.3333 439.48 33.0273 439.441C32.7279 439.402 32.4284 439.383 32.1289 439.383C30.931 439.383 29.9967 439.611 29.3262 440.066C28.6556 440.516 28.1771 441.134 27.8906 441.922C27.6042 442.703 27.4382 443.598 27.3926 444.607H27.5098C27.7051 444.282 27.9492 443.992 28.2422 443.738C28.5352 443.484 28.8932 443.283 29.3164 443.133C29.7396 442.977 30.2311 442.898 30.791 442.898C31.6243 442.898 32.3503 443.074 32.9688 443.426C33.5872 443.771 34.0625 444.272 34.3945 444.93C34.7331 445.587 34.9023 446.385 34.9023 447.322C34.9023 448.331 34.7103 449.201 34.3262 449.93C33.9486 450.659 33.4082 451.219 32.7051 451.609C32.0085 452 31.1784 452.195 30.2148 452.195C29.5052 452.195 28.8444 452.065 28.2324 451.805C27.627 451.544 27.0964 451.154 26.6406 450.633C26.1849 450.112 25.8301 449.461 25.5762 448.68C25.3223 447.892 25.1953 446.971 25.1953 445.916ZM30.1758 450.301C30.918 450.301 31.5137 450.06 31.9629 449.578C32.4186 449.09 32.6465 448.344 32.6465 447.342C32.6465 446.528 32.4447 445.883 32.041 445.408C31.6439 444.933 31.0449 444.695 30.2441 444.695C29.6973 444.695 29.2188 444.812 28.8086 445.047C28.3984 445.281 28.0794 445.577 27.8516 445.936C27.6302 446.294 27.5195 446.658 27.5195 447.029C27.5195 447.407 27.5749 447.788 27.6855 448.172C27.7962 448.556 27.9622 448.911 28.1836 449.236C28.4049 449.555 28.6816 449.812 29.0137 450.008C29.3457 450.203 29.7331 450.301 30.1758 450.301Z" fill="black"/>
<rect x="355" y="198" width="90" height="50" rx="10" transform="rotate(90 355 198)" fill="white"/>
<rect x="305" y="173" width="50" height="20" rx="10" fill="white"/>
<rect x="300" y="162" width="60" height="6" rx="3" fill="white"/>
<rect x="355" y="313" width="50" height="20" rx="10" transform="rotate(180 355 313)" fill="white"/>
<rect x="360" y="324" width="60" height="6" rx="3" transform="rotate(180 360 324)" fill="white"/>
<path d="M330.029 241.074C330.947 241.074 331.755 241.24 332.451 241.572C333.154 241.898 333.701 242.38 334.092 243.018C334.482 243.649 334.678 244.424 334.678 245.342C334.678 246.344 334.466 247.21 334.043 247.939C333.62 248.662 332.998 249.219 332.178 249.609C331.357 250 330.358 250.195 329.18 250.195C328.431 250.195 327.731 250.13 327.08 250C326.436 249.87 325.879 249.674 325.41 249.414V247.344C325.898 247.617 326.484 247.842 327.168 248.018C327.852 248.187 328.506 248.271 329.131 248.271C329.795 248.271 330.365 248.174 330.84 247.979C331.315 247.783 331.68 247.484 331.934 247.08C332.194 246.676 332.324 246.165 332.324 245.547C332.324 244.727 332.061 244.095 331.533 243.652C331.012 243.203 330.195 242.979 329.082 242.979C328.691 242.979 328.275 243.014 327.832 243.086C327.396 243.151 327.031 243.223 326.738 243.301L325.732 242.705L326.27 235.723H333.691V237.744H328.291L327.979 241.299C328.213 241.247 328.493 241.198 328.818 241.152C329.144 241.1 329.548 241.074 330.029 241.074Z" fill="black"/>
<rect x="355" y="400" width="90" height="50" rx="10" transform="rotate(90 355 400)" fill="white"/>
<rect x="305" y="375" width="50" height="20" rx="10" fill="white"/>
<rect x="300" y="364" width="60" height="6" rx="3" fill="white"/>
<rect x="355" y="515" width="50" height="20" rx="10" transform="rotate(180 355 515)" fill="white"/>
<rect x="360" y="526" width="60" height="6" rx="3" transform="rotate(180 360 526)" fill="white"/>
<path d="M329.99 437.527C330.817 437.527 331.562 437.658 332.227 437.918C332.891 438.172 333.418 438.553 333.809 439.061C334.199 439.568 334.395 440.197 334.395 440.945C334.395 441.525 334.274 442.029 334.033 442.459C333.799 442.889 333.48 443.266 333.076 443.592C332.673 443.911 332.22 444.194 331.719 444.441C332.279 444.715 332.793 445.031 333.262 445.389C333.737 445.74 334.118 446.154 334.404 446.629C334.697 447.104 334.844 447.661 334.844 448.299C334.844 449.1 334.639 449.793 334.229 450.379C333.825 450.958 333.262 451.408 332.539 451.727C331.816 452.039 330.973 452.195 330.01 452.195C328.975 452.195 328.092 452.042 327.363 451.736C326.634 451.43 326.081 450.994 325.703 450.428C325.326 449.855 325.137 449.171 325.137 448.377C325.137 447.719 325.267 447.15 325.527 446.668C325.788 446.186 326.136 445.77 326.572 445.418C327.015 445.066 327.5 444.77 328.027 444.529C327.578 444.262 327.168 443.963 326.797 443.631C326.426 443.292 326.13 442.905 325.908 442.469C325.693 442.026 325.586 441.515 325.586 440.936C325.586 440.193 325.785 439.572 326.182 439.07C326.579 438.562 327.109 438.178 327.773 437.918C328.444 437.658 329.183 437.527 329.99 437.527ZM327.324 448.289C327.324 448.914 327.546 449.428 327.988 449.832C328.431 450.236 329.092 450.438 329.971 450.438C330.843 450.438 331.507 450.239 331.963 449.842C332.419 449.445 332.646 448.921 332.646 448.27C332.646 447.853 332.529 447.485 332.295 447.166C332.067 446.847 331.758 446.564 331.367 446.316C330.983 446.062 330.557 445.828 330.088 445.613L329.775 445.486C329.268 445.701 328.831 445.945 328.467 446.219C328.102 446.486 327.819 446.788 327.617 447.127C327.422 447.465 327.324 447.853 327.324 448.289ZM329.971 439.295C329.339 439.295 328.818 439.451 328.408 439.764C328.005 440.07 327.803 440.512 327.803 441.092C327.803 441.502 327.9 441.854 328.096 442.146C328.298 442.439 328.568 442.693 328.906 442.908C329.245 443.117 329.619 443.312 330.029 443.494C330.426 443.318 330.785 443.126 331.104 442.918C331.429 442.703 331.686 442.449 331.875 442.156C332.07 441.857 332.168 441.499 332.168 441.082C332.168 440.509 331.963 440.07 331.553 439.764C331.149 439.451 330.622 439.295 329.971 439.295Z" fill="black"/>
<circle cx="180" cy="243" r="45" fill="white"/>
<rect x="155" y="173" width="50" height="20" rx="10" fill="white"/>
<rect x="150" y="162" width="60" height="6" rx="3" fill="white"/>
<rect width="50" height="20" rx="10" transform="matrix(1 0 0 -1 155 313)" fill="white"/>
<rect width="60" height="6" rx="3" transform="matrix(1 0 0 -1 150 324)" fill="white"/>
<rect width="50" height="20" rx="10" transform="matrix(0 -1 -1 0 250 263)" fill="white"/>
<rect width="60" height="6" rx="3" transform="matrix(0 -1 -1 0 261 268)" fill="white"/>
<rect width="50" height="20" rx="10" transform="matrix(0 1 1 0 110 213)" fill="white"/>
<rect width="60" height="6" rx="3" transform="matrix(0 1 1 0 99 208)" fill="white"/>
<path d="M185.361 246.865H183.428V250H181.162V246.865H174.668V245.127L181.191 235.684H183.428V244.961H185.361V246.865ZM181.162 244.961V241.416C181.162 241.123 181.165 240.827 181.172 240.527C181.185 240.221 181.198 239.928 181.211 239.648C181.224 239.368 181.237 239.111 181.25 238.877C181.263 238.636 181.273 238.438 181.279 238.281H181.201C181.077 238.542 180.941 238.809 180.791 239.082C180.641 239.349 180.482 239.609 180.312 239.863L176.797 244.961H181.162Z" fill="black"/>
<circle cx="180" cy="445" r="45" fill="white"/>
<rect x="155" y="375" width="50" height="20" rx="10" fill="white"/>
<rect x="150" y="364" width="60" height="6" rx="3" fill="white"/>
<rect width="50" height="20" rx="10" transform="matrix(1 0 0 -1 155 515)" fill="white"/>
<rect width="60" height="6" rx="3" transform="matrix(1 0 0 -1 150 526)" fill="white"/>
<rect width="50" height="20" rx="10" transform="matrix(0 -1 -1 0 250 465)" fill="white"/>
<rect width="60" height="6" rx="3" transform="matrix(0 -1 -1 0 261 470)" fill="white"/>
<rect width="50" height="20" rx="10" transform="matrix(0 1 1 0 110 415)" fill="white"/>
<rect width="60" height="6" rx="3" transform="matrix(0 1 1 0 99 410)" fill="white"/>
<path d="M176.807 452L182.412 439.734H175V437.723H184.883V439.295L179.277 452H176.807Z" fill="black"/>
</svg>
